<?xml version="1.0" encoding="utf-8"?><!DOCTYPE svg PUBLIC "-//W3C//DTD SVG 1.1//EN" "http://www.w3.org/Graphics/SVG/1.1/DTD/svg11.dtd"><svg width="35" height="35" viewBox="0 0 35 35" xmlns="http://www.w3.org/2000/svg" xmlns:xlink="http://www.w3.org/1999/xlink"><svg width="34.06" height="35" viewBox="-21.33 -21.33 72.67 74.67" id="arrow-down" xmlns="http://www.w3.org/2000/svg"><path d="M28.768 14.857q0 .946-.661 1.607L16.482 28.107q-.696.661-1.625.661-.946 0-1.607-.661L1.625 16.464q-.679-.643-.679-1.607 0-.946.679-1.625l1.321-1.339q.696-.661 1.625-.661.946 0 1.607.661l5.25 5.25V4.572q0-.929.679-1.607t1.607-.679H16q.929 0 1.607.679t.679 1.607v12.571l5.25-5.25q.661-.661 1.607-.661.929 0 1.625.661l1.339 1.339q.661.696.661 1.625z"/></svg></svg>